# 3ds Max Wavefront OBJ Exporter v0.99 - (c)2007 guruware
# File Created: 28.01.2024 05:22:18

mtllib House4.mtl

#
# object Cube_014
#

v  -53.1085 0.3604 59.7006
v  -53.1085 55.6385 59.7011
v  -53.1085 55.6396 -59.7005
v  -53.1085 0.3615 -59.7011
v  53.1085 55.6396 -59.7006
v  53.1085 0.3615 -59.7011
v  53.1085 55.6385 59.7011
v  53.1085 0.3604 59.7005
v  -42.6746 0.3605 47.9716
v  42.6746 0.3605 47.9715
v  -41.7547 55.6386 46.9379
v  -41.7547 55.6395 -46.9374
v  41.7547 55.6386 46.9379
v  41.7547 50.1637 46.9379
v  -41.7547 50.1637 46.9379
v  41.7547 55.6395 -46.9374
v  41.7547 50.1646 -46.9375
v  -41.7547 50.1646 -46.9374
v  42.6746 0.3614 -47.9721
v  42.6746 23.3005 47.9718
v  42.6746 23.3015 -47.9719
v  -42.6746 0.3614 -47.9721
v  -42.6746 23.3015 -47.9719
v  -42.6746 23.3005 47.9718
v  54.6206 1.0452 5.9379
v  54.6206 1.0450 -6.5069
v  54.6206 27.8760 -6.5073
v  54.6206 27.8762 5.9375
v  50.5691 1.0450 -6.5069
v  50.5691 27.8760 -6.5073
v  50.5691 1.0452 5.9379
v  50.5691 27.8762 5.9375
v  -34.1438 27.5827 13.8344
v  -34.1438 55.0306 13.8347
v  -34.1438 55.0309 -13.6133
v  -34.1438 27.5829 -13.6136
v  -6.6959 55.0309 -13.6133
v  -6.6959 27.5829 -13.6136
v  -6.6959 55.0306 13.8347
v  -6.6959 27.5827 13.8344
v  -61.4745 0.1764 45.0787
v  -61.4745 27.6244 45.0791
v  -61.4746 27.6258 -44.5617
v  -61.4746 0.1778 -44.5621
v  -34.0266 27.6258 -44.5617
v  -34.0266 0.1778 -44.5621
v  -34.0266 27.6244 45.0791
v  -34.0266 0.1764 45.0787
v  -34.0266 14.1824 -44.5619
v  -61.4746 14.1824 -44.5619
v  -34.0266 14.1810 45.0789
v  -61.4745 14.1810 45.0789
v  -30.6713 29.6430 4.7205
v  -30.6713 69.5700 4.7209
v  -30.6713 69.5701 -4.4473
v  -30.6713 29.6430 -4.4477
v  -19.7833 69.5701 -4.4473
v  -19.7833 29.6430 -4.4477
v  -19.7833 69.5700 4.7209
v  -19.7833 29.6430 4.7205
v  -16.7911 69.5701 -6.9669
v  -16.7911 69.5699 7.2405
v  -33.6635 69.5701 -6.9669
v  -33.6635 69.5699 7.2405
v  -33.6635 75.0897 7.2405
v  -33.6635 75.0898 -6.9669
v  -16.7911 75.0897 7.2405
v  -16.7911 75.0898 -6.9669
v  -18.2247 75.0898 -5.7597
v  -32.2299 75.0898 -5.7597
v  -32.2299 73.2101 -5.7597
v  -18.2247 73.2101 -5.7597
v  -32.2299 75.0897 6.0334
v  -18.2247 75.0897 6.0334
v  -32.2299 73.2099 6.0334
v  -18.2247 73.2099 6.0334
v  -18.2247 71.6742 6.0333
v  -32.2299 71.6742 6.0333
v  -18.2247 71.6743 -5.7598
v  -32.2299 71.6743 -5.7598
# 80 vertices

vn -1.0000 0.0000 -0.0000
vn 0.0000 0.0000 -1.0000
vn 1.0000 0.0000 -0.0000
vn 0.0000 0.0000 1.0000
vn 0.0000 -1.0000 -0.0000
vn 0.0000 1.0000 -0.0000
vn -0.0000 1.0000 -0.0000
vn -0.0000 -1.0000 -0.0000
vn 1.0000 -0.0000 0.0000
vn -0.0000 -0.0000 -1.0000
vn -0.0000 -1.0000 0.0001
vn 0.0000 1.0000 -0.0001
vn -0.0000 -1.0000 0.0000
vn -1.0000 -0.0000 0.0000
vn -0.0000 0.0000 -1.0000
vn 0.0000 -0.0000 1.0000
vn 0.0000 1.0000 0.0000
vn 0.0000 -1.0000 0.0000
# 18 vertex normals

vt 0.3750 0.0000 0.0000
vt 0.6250 0.0000 0.0000
vt 0.6250 0.2500 0.0000
vt 0.3750 0.2500 0.0000
vt 0.6250 0.5000 0.0000
vt 0.3750 0.5000 0.0000
vt 0.6250 0.7500 0.0000
vt 0.3750 0.7500 0.0000
vt 0.6250 1.0000 0.0000
vt 0.3750 1.0000 0.0000
vt 0.8750 0.5000 0.0000
vt 0.8750 0.7500 0.0000
vt 0.1250 0.5000 0.0000
vt 0.1250 0.7500 0.0000
vt 0.6462 0.5212 0.0000
vt 0.8538 0.5212 0.0000
vt 0.8538 0.7288 0.0000
vt 0.6462 0.7288 0.0000
# 18 texture coords

o Cube_014
g Cube_014
usemtl wire_204204204
s off
f 1/1/1 2/2/1 3/3/1 4/4/1 
f 4/4/2 3/3/2 5/5/2 6/6/2 
f 6/6/3 5/5/3 7/7/3 8/8/3 
f 8/8/4 7/7/4 2/9/4 1/10/4 
f 8/8/5 1/10/5 9/10/5 10/8/5 
f 3/3/6 2/2/6 11/2/6 12/3/6 
f 11/9/2 13/7/2 14/7/2 15/9/2 
f 2/9/6 7/7/6 13/7/6 11/9/6 
f 5/5/6 3/3/6 12/3/6 16/5/6 
f 7/7/7 5/5/7 16/5/7 13/7/7 
f 17/5/6 18/11/6 15/12/6 14/7/6 
f 16/5/4 12/3/4 18/3/4 17/5/4 
f 13/7/1 16/5/1 17/5/1 14/7/1 
f 12/3/3 11/2/3 15/2/3 18/3/3 
f 19/6/1 10/8/1 20/8/1 21/6/1 
f 4/4/5 6/6/5 19/6/5 22/4/5 
f 1/1/8 4/4/8 22/4/8 9/1/8 
f 6/6/5 8/8/5 10/8/5 19/6/5 
f 23/13/5 21/6/5 20/8/5 24/14/5 
f 9/1/3 22/4/3 23/4/3 24/1/3 
f 10/8/2 9/10/2 24/10/2 20/8/2 
f 22/4/4 19/6/4 21/6/4 23/4/4 
f 25/1/9 26/4/9 27/3/9 28/2/9 
f 26/4/10 29/6/10 30/5/10 27/3/10 
f 29/6/1 31/8/1 32/7/1 30/5/1 
f 31/8/4 25/10/4 28/9/4 32/7/4 
f 26/13/11 25/14/11 31/8/11 29/6/11 
f 30/5/12 32/7/12 28/12/12 27/11/12 
f 33/1/1 34/2/1 35/3/1 36/4/1 
f 36/4/10 35/3/10 37/5/10 38/6/10 
f 38/6/9 37/5/9 39/7/9 40/8/9 
f 40/8/4 39/7/4 34/9/4 33/10/4 
f 36/13/13 38/6/13 40/8/13 33/14/13 
f 37/5/6 35/11/6 34/12/6 39/7/6 
f 41/1/14 42/2/14 43/3/14 44/4/14 
f 44/4/15 43/3/15 45/5/15 46/6/15 
f 46/6/3 45/5/3 47/7/3 48/8/3 
f 48/8/16 47/7/16 42/9/16 41/10/16 
f 44/4/16 46/6/16 49/6/16 50/4/16 
f 45/5/17 43/11/17 42/12/17 47/7/17 
f 50/13/8 49/6/8 51/8/8 52/14/8 
f 41/1/3 44/4/3 50/4/3 52/1/3 
f 46/6/14 48/8/14 51/8/14 49/6/14 
f 48/8/15 41/10/15 52/10/15 51/8/15 
f 53/1/1 54/2/1 55/3/1 56/4/1 
f 56/4/10 55/3/10 57/5/10 58/6/10 
f 58/6/9 57/5/9 59/7/9 60/8/9 
f 60/8/4 59/7/4 54/9/4 53/10/4 
f 56/13/13 58/6/13 60/8/13 53/14/13 
f 59/7/13 57/5/13 61/5/13 62/7/13 
f 63/3/1 64/2/1 65/2/1 66/3/1 
f 55/3/18 54/2/18 64/2/18 63/3/18 
f 54/9/13 59/7/13 62/7/13 64/9/13 
f 57/5/13 55/3/13 63/3/13 61/5/13 
f 65/9/6 67/7/6 67/7/6 65/9/6 
f 64/9/4 62/7/4 67/7/4 65/9/4 
f 61/5/10 63/3/10 66/3/10 68/5/10 
f 62/7/9 61/5/9 68/5/9 67/7/9 
f 69/15/4 70/16/4 71/16/4 72/15/4 
f 68/5/6 66/3/6 66/3/6 68/5/6 
f 67/7/6 68/5/6 68/5/6 67/7/6 
f 66/3/6 65/2/6 65/2/6 66/3/6 
f 73/17/7 70/16/7 66/11/7 65/12/7 
f 70/16/6 69/15/6 68/5/6 66/11/6 
f 69/15/6 74/18/6 67/7/6 68/5/6 
f 74/18/6 73/17/6 65/12/6 67/7/6 
f 75/17/10 76/18/10 77/18/10 78/17/10 
f 74/18/1 69/15/1 72/15/1 76/18/1 
f 70/16/9 73/17/9 75/17/9 71/16/9 
f 73/17/10 74/18/10 76/18/10 75/17/10 
f 79/15/6 80/16/6 78/17/6 77/18/6 
f 72/15/4 71/16/4 80/16/4 79/15/4 
f 76/18/1 72/15/1 79/15/1 77/18/1 
f 71/16/9 75/17/9 78/17/9 80/16/9 
# 74 polygons

