# 3ds Max Wavefront OBJ Exporter v0.99 - (c)2007 guruware
# File Created: 28.01.2024 05:21:59

mtllib House3.mtl

#
# object Cube_004
#

v  -28.6009 0.5357 72.8194
v  -28.6009 55.4643 72.8194
v  -28.6009 55.4643 -72.8194
v  -28.6009 0.5357 -72.8194
v  28.6009 55.4643 -72.8194
v  28.6009 0.5357 -72.8194
v  28.6009 55.4643 72.8194
v  28.6009 0.5357 72.8194
v  20.9851 0.5357 -53.4290
v  20.9851 0.5357 53.4290
v  20.9851 27.5076 53.4290
v  20.9851 27.5076 -53.4290
v  -20.9851 0.5357 -53.4290
v  -20.9851 0.5357 53.4290
v  -20.9851 27.5076 53.4290
v  -20.9851 58.6426 53.4290
v  20.9851 58.6426 53.4290
v  -20.9851 27.5076 -53.4290
v  -20.9851 58.6426 -53.4290
v  20.9851 58.6426 -53.4290
v  -0.3457 50.0110 19.9781
v  -0.2541 94.8980 -1.1836
v  -0.7621 50.0110 -22.3394
v  49.7337 48.9833 19.4853
v  49.3174 48.9833 -22.8322
v  49.8253 93.8704 -1.6764
v  -0.4315 0.3101 19.9789
v  49.6479 -0.7176 19.4862
v  -0.8479 0.3101 -22.3386
v  49.2315 -0.7176 -22.8314
v  5.6248 0.1848 14.7583
v  43.4901 -0.5923 14.3857
v  5.3099 0.1848 -17.2382
v  43.1753 -0.5923 -17.6108
v  6.1537 25.9616 14.7531
v  44.0190 25.1846 14.3805
v  5.8389 25.9616 -17.2434
v  43.7042 25.1846 -17.6160
v  50.2821 -0.7812 3.5955
v  50.2821 -0.7812 -8.8494
v  50.2821 26.0499 -8.8494
v  50.2821 26.0498 3.5955
v  46.2306 -0.7812 -8.8494
v  46.2306 26.0499 -8.8494
v  46.2306 -0.7812 3.5955
v  46.2306 26.0498 3.5955
v  1.3263 65.4402 -33.6806
v  1.4063 75.7428 -46.3160
v  1.0777 65.4402 -58.9473
v  31.2267 65.2323 -33.9748
v  30.9781 65.2323 -59.2415
v  31.3067 75.5349 -46.6102
v  1.2470 54.0328 -33.6798
v  31.1474 53.8250 -33.9740
v  0.9984 54.0328 -58.9465
v  30.8988 53.8250 -59.2407
v  1.3263 65.4402 56.7594
v  1.4063 75.7428 44.1240
v  1.0777 65.4402 31.4927
v  31.2267 65.2323 56.4652
v  30.9781 65.2323 31.1985
v  31.3067 75.5349 43.8298
v  1.2470 54.0328 56.7602
v  31.1474 53.8250 56.4660
v  0.9984 54.0328 31.4935
v  30.8988 53.8250 31.1992
v  -32.1306 51.8192 -77.0529
v  0.0000 94.4677 -75.9957
v  32.1306 51.8192 -77.0529
v  -32.1306 51.0031 75.4868
v  32.1306 51.0031 75.4868
v  0.0000 93.6516 76.5440
v  29.8397 29.2567 53.7938
v  29.8397 29.2567 34.6237
v  29.8397 43.5885 34.6237
v  29.8397 43.5885 53.7938
v  26.6434 29.2567 34.6237
v  26.6434 43.5885 34.6237
v  26.6434 29.2567 53.7938
v  26.6434 43.5885 53.7938
v  29.8397 5.9257 53.9658
v  29.8397 5.9257 34.7957
v  29.8397 20.2574 34.7957
v  29.8397 20.2574 53.9658
v  26.6434 5.9257 34.7957
v  26.6434 20.2574 34.7957
v  26.6434 5.9257 53.9658
v  26.6434 20.2574 53.9658
v  29.8397 5.9257 -37.2749
v  29.8397 5.9257 -56.4450
v  29.8397 20.2574 -56.4450
v  29.8397 20.2574 -37.2749
v  26.6434 5.9257 -56.4450
v  26.6434 20.2574 -56.4450
v  26.6434 5.9257 -37.2749
v  26.6434 20.2574 -37.2749
v  29.8397 29.2567 -37.2749
v  29.8397 29.2567 -56.4450
v  29.8397 43.5885 -56.4450
v  29.8397 43.5885 -37.2749
v  26.6434 29.2567 -56.4450
v  26.6434 43.5885 -56.4450
v  26.6434 29.2567 -37.2749
v  26.6434 43.5885 -37.2749
v  5.0547 71.7519 69.0364
v  5.0547 97.6452 69.0364
v  5.0547 97.6452 63.0906
v  5.0547 71.7519 63.0906
v  12.1157 97.6452 63.0906
v  12.1157 71.7519 63.0906
v  12.1157 97.6452 69.0364
v  12.1157 71.7519 69.0364
v  14.0562 97.6452 61.4566
v  14.0562 97.6452 70.6704
v  3.1142 97.6452 61.4566
v  3.1142 97.6452 70.6704
v  3.1142 101.2249 70.6704
v  3.1142 101.2249 61.4566
v  14.0562 101.2249 70.6704
v  14.0562 101.2249 61.4566
v  13.1265 101.2249 62.2395
v  4.0439 101.2249 62.2395
v  4.0439 100.0058 62.2395
v  13.1265 100.0058 62.2395
v  4.0439 101.2249 69.8875
v  13.1265 101.2249 69.8875
v  4.0439 100.0058 69.8875
v  13.1265 100.0058 69.8875
v  13.1265 99.0099 69.8875
v  4.0439 99.0099 69.8875
v  13.1265 99.0099 62.2395
v  4.0439 99.0099 62.2395
v  5.0547 71.7519 -62.7666
v  5.0547 97.6452 -62.7666
v  5.0547 97.6452 -68.7124
v  5.0547 71.7519 -68.7124
v  12.1157 97.6452 -68.7124
v  12.1157 71.7519 -68.7124
v  12.1157 97.6452 -62.7666
v  12.1157 71.7519 -62.7666
v  14.0562 97.6452 -70.3464
v  14.0562 97.6452 -61.1326
v  3.1142 97.6452 -70.3464
v  3.1142 97.6452 -61.1326
v  3.1142 101.2249 -61.1326
v  3.1142 101.2249 -70.3464
v  14.0562 101.2249 -61.1326
v  14.0562 101.2249 -70.3464
v  13.1265 101.2249 -69.5635
v  4.0439 101.2249 -69.5635
v  4.0439 100.0058 -69.5635
v  13.1265 100.0058 -69.5635
v  4.0439 101.2249 -61.9155
v  13.1265 101.2249 -61.9155
v  4.0439 100.0058 -61.9155
v  13.1265 100.0058 -61.9155
v  13.1265 99.0099 -61.9155
v  4.0439 99.0099 -61.9155
v  13.1265 99.0099 -69.5635
v  4.0439 99.0099 -69.5635
# 160 vertices

vn -1.0000 0.0000 -0.0000
vn 0.0000 0.0000 -1.0000
vn 1.0000 0.0000 -0.0000
vn 0.0000 0.0000 1.0000
vn 0.0000 1.0000 -0.0000
vn 0.0000 -1.0000 -0.0000
vn -0.9997 0.0064 0.0250
vn 0.9997 -0.0064 -0.0250
vn -0.0001 0.1750 -0.9846
vn -0.0016 1.0000 0.0000
vn 0.0075 0.1750 0.9845
vn 0.0039 -0.0000 1.0000
vn 0.9997 -0.0017 -0.0250
vn -0.0039 -0.0000 -1.0000
vn -0.9997 0.0017 0.0250
vn -0.0214 -0.9998 0.0005
vn -0.0039 0.0000 -1.0000
vn -0.9995 0.0197 0.0250
vn 0.0039 0.0000 1.0000
vn 0.9995 -0.0197 -0.0250
vn -0.0000 0.0000 -1.0000
vn 0.0000 -0.0000 1.0000
vn -0.0000 1.0000 0.0000
vn -0.9995 0.0190 0.0250
vn 0.9995 -0.0190 -0.0250
vn -0.0005 0.4197 -0.9077
vn 0.0065 0.4198 0.9076
vn -0.0072 -1.0000 0.0002
vn 0.9997 -0.0067 -0.0250
vn -0.9997 0.0067 0.0250
vn 0.0000 0.0093 -1.0000
vn 0.0000 -0.0093 1.0000
vn 0.8102 0.5861 0.0083
vn 0.0000 -0.9999 -0.0142
vn -0.8102 0.5861 0.0083
vn -0.0000 -1.0000 -0.0000
vn -0.0000 1.0000 -0.0000
# 37 vertex normals

vt 0.3750 0.0000 0.0000
vt 0.6250 0.0000 0.0000
vt 0.6250 0.2500 0.0000
vt 0.3750 0.2500 0.0000
vt 0.6250 0.5000 0.0000
vt 0.3750 0.5000 0.0000
vt 0.6250 0.7500 0.0000
vt 0.3750 0.7500 0.0000
vt 0.6250 1.0000 0.0000
vt 0.3750 1.0000 0.0000
vt 0.3417 0.5333 0.0000
vt 0.3417 0.7167 0.0000
vt 0.8750 0.5000 0.0000
vt 0.8750 0.7500 0.0000
vt 0.1583 0.5333 0.0000
vt 0.1583 0.7167 0.0000
vt 0.1250 0.7500 0.0000
vt 0.1250 0.5000 0.0000
vt 0.0000 0.0000 0.0000
vt 0.6462 0.5212 0.0000
vt 0.8538 0.5212 0.0000
vt 0.8538 0.7288 0.0000
vt 0.6462 0.7288 0.0000
# 23 texture coords

o Cube_004
g Cube_004
usemtl wire_204204204
s off
f 1/1/1 2/2/1 3/3/1 4/4/1 
f 4/4/2 3/3/2 5/5/2 6/6/2 
f 6/6/3 5/5/3 7/7/3 8/8/3 
f 8/8/4 7/7/4 2/9/4 1/10/4 
f 9/11/1 10/12/1 11/12/1 12/11/1 
f 5/5/5 3/13/5 2/14/5 7/7/5 
f 13/15/6 14/16/6 1/17/6 4/18/6 
f 9/11/6 13/15/6 4/18/6 6/6/6 
f 10/12/6 9/11/6 6/6/6 8/8/6 
f 14/16/6 10/12/6 8/8/6 1/17/6 
f 11/12/2 15/16/2 16/16/2 17/12/2 
f 14/16/3 13/15/3 18/15/3 15/16/3 
f 10/12/2 14/16/2 15/16/2 11/12/2 
f 13/15/4 9/11/4 12/11/4 18/15/4 
f 19/15/6 20/11/6 17/12/6 16/16/6 
f 18/15/4 12/11/4 20/11/4 19/15/4 
f 12/11/1 11/12/1 17/12/1 20/11/1 
f 15/16/3 18/15/3 19/15/3 16/16/3 
f 21/19/7 22/19/7 23/19/7 
f 24/19/8 25/19/8 26/19/8 
f 23/19/9 22/19/9 26/19/9 25/19/9 
f 21/19/10 23/19/10 23/19/10 21/19/10 
f 22/19/11 21/19/11 24/19/11 26/19/11 
f 24/19/12 21/19/12 27/19/12 28/19/12 
f 24/19/10 21/19/10 21/19/10 24/19/10 
f 25/19/10 24/19/10 24/19/10 25/19/10 
f 23/19/10 25/19/10 25/19/10 23/19/10 
f 29/19/10 30/19/10 30/19/10 29/19/10 
f 25/19/13 24/19/13 28/19/13 30/19/13 
f 23/19/14 25/19/14 30/19/14 29/19/14 
f 21/19/15 23/19/15 29/19/15 27/19/15 
f 28/19/16 27/19/16 31/19/16 32/19/16 
f 27/19/10 29/19/10 29/19/10 27/19/10 
f 28/19/10 27/19/10 27/19/10 28/19/10 
f 30/19/10 28/19/10 28/19/10 30/19/10 
f 33/19/10 34/19/10 34/19/10 33/19/10 
f 30/19/16 28/19/16 32/19/16 34/19/16 
f 29/19/16 30/19/16 34/19/16 33/19/16 
f 27/19/16 29/19/16 33/19/16 31/19/16 
f 33/19/10 34/19/10 34/19/10 33/19/10 
f 31/19/10 33/19/10 33/19/10 31/19/10 
f 32/19/10 31/19/10 31/19/10 32/19/10 
f 34/19/10 32/19/10 32/19/10 34/19/10 
f 32/19/17 31/19/17 35/19/17 36/19/17 
f 31/19/10 33/19/10 33/19/10 31/19/10 
f 32/19/10 31/19/10 31/19/10 32/19/10 
f 34/19/10 32/19/10 32/19/10 34/19/10 
f 35/19/16 37/19/16 38/19/16 36/19/16 
f 34/19/18 32/19/18 36/19/18 38/19/18 
f 33/19/19 34/19/19 38/19/19 37/19/19 
f 31/19/20 33/19/20 37/19/20 35/19/20 
f 39/1/3 40/4/3 41/3/3 42/2/3 
f 40/4/21 43/6/21 44/5/21 41/3/21 
f 43/6/1 45/8/1 46/7/1 44/5/1 
f 45/8/22 39/10/22 42/9/22 46/7/22 
f 40/18/6 39/17/6 45/8/6 43/6/6 
f 44/5/23 46/7/23 42/14/23 41/13/23 
f 47/19/24 48/19/24 49/19/24 
f 50/19/25 51/19/25 52/19/25 
f 49/19/26 48/19/26 52/19/26 51/19/26 
f 47/19/10 49/19/10 49/19/10 47/19/10 
f 48/19/27 47/19/27 50/19/27 52/19/27 
f 50/19/19 47/19/19 53/19/19 54/19/19 
f 50/19/10 47/19/10 47/19/10 50/19/10 
f 51/19/10 50/19/10 50/19/10 51/19/10 
f 49/19/10 51/19/10 51/19/10 49/19/10 
f 53/19/28 55/19/28 56/19/28 54/19/28 
f 51/19/29 50/19/29 54/19/29 56/19/29 
f 49/19/14 51/19/14 56/19/14 55/19/14 
f 47/19/30 49/19/30 55/19/30 53/19/30 
f 57/19/24 58/19/24 59/19/24 
f 60/19/25 61/19/25 62/19/25 
f 59/19/26 58/19/26 62/19/26 61/19/26 
f 57/19/10 59/19/10 59/19/10 57/19/10 
f 58/19/27 57/19/27 60/19/27 62/19/27 
f 60/19/19 57/19/19 63/19/19 64/19/19 
f 60/19/10 57/19/10 57/19/10 60/19/10 
f 61/19/10 60/19/10 60/19/10 61/19/10 
f 59/19/10 61/19/10 61/19/10 59/19/10 
f 63/19/28 65/19/28 66/19/28 64/19/28 
f 61/19/29 60/19/29 64/19/29 66/19/29 
f 59/19/14 61/19/14 66/19/14 65/19/14 
f 57/19/30 59/19/30 65/19/30 63/19/30 
f 67/19/31 68/19/31 69/19/31 
f 70/19/32 71/19/32 72/19/32 
f 69/19/33 68/19/33 72/19/33 71/19/33 
f 67/19/34 69/19/34 71/19/34 70/19/34 
f 68/19/35 67/19/35 70/19/35 72/19/35 
f 73/1/3 74/4/3 75/3/3 76/2/3 
f 74/4/21 77/6/21 78/5/21 75/3/21 
f 77/6/1 79/8/1 80/7/1 78/5/1 
f 79/8/22 73/10/22 76/9/22 80/7/22 
f 74/18/6 73/17/6 79/8/6 77/6/6 
f 78/5/23 80/7/23 76/14/23 75/13/23 
f 81/1/3 82/4/3 83/3/3 84/2/3 
f 82/4/21 85/6/21 86/5/21 83/3/21 
f 85/6/1 87/8/1 88/7/1 86/5/1 
f 87/8/22 81/10/22 84/9/22 88/7/22 
f 82/18/6 81/17/6 87/8/6 85/6/6 
f 86/5/23 88/7/23 84/14/23 83/13/23 
f 89/1/3 90/4/3 91/3/3 92/2/3 
f 90/4/21 93/6/21 94/5/21 91/3/21 
f 93/6/1 95/8/1 96/7/1 94/5/1 
f 95/8/22 89/10/22 92/9/22 96/7/22 
f 90/18/6 89/17/6 95/8/6 93/6/6 
f 94/5/23 96/7/23 92/14/23 91/13/23 
f 97/1/3 98/4/3 99/3/3 100/2/3 
f 98/4/21 101/6/21 102/5/21 99/3/21 
f 101/6/1 103/8/1 104/7/1 102/5/1 
f 103/8/22 97/10/22 100/9/22 104/7/22 
f 98/18/6 97/17/6 103/8/6 101/6/6 
f 102/5/23 104/7/23 100/14/23 99/13/23 
f 105/1/1 106/2/1 107/3/1 108/4/1 
f 108/4/2 107/3/2 109/5/2 110/6/2 
f 110/6/3 109/5/3 111/7/3 112/8/3 
f 112/8/4 111/7/4 106/9/4 105/10/4 
f 108/18/6 110/6/6 112/8/6 105/17/6 
f 111/7/36 109/5/36 113/5/36 114/7/36 
f 115/3/1 116/2/1 117/2/1 118/3/1 
f 107/3/6 106/2/6 116/2/6 115/3/6 
f 106/9/6 111/7/6 114/7/6 116/9/6 
f 109/5/6 107/3/6 115/3/6 113/5/6 
f 117/9/5 119/7/5 119/7/5 117/9/5 
f 116/9/4 114/7/4 119/7/4 117/9/4 
f 113/5/2 115/3/2 118/3/2 120/5/2 
f 114/7/3 113/5/3 120/5/3 119/7/3 
f 121/20/4 122/21/4 123/21/4 124/20/4 
f 120/5/5 118/3/5 118/3/5 120/5/5 
f 119/7/5 120/5/5 120/5/5 119/7/5 
f 118/3/5 117/2/5 117/2/5 118/3/5 
f 125/22/37 122/21/37 118/13/37 117/14/37 
f 122/21/5 121/20/5 120/5/5 118/13/5 
f 121/20/5 126/23/5 119/7/5 120/5/5 
f 126/23/5 125/22/5 117/14/5 119/7/5 
f 127/22/2 128/23/2 129/23/2 130/22/2 
f 126/23/1 121/20/1 124/20/1 128/23/1 
f 122/21/3 125/22/3 127/22/3 123/21/3 
f 125/22/2 126/23/2 128/23/2 127/22/2 
f 131/20/5 132/21/5 130/22/5 129/23/5 
f 124/20/4 123/21/4 132/21/4 131/20/4 
f 128/23/1 124/20/1 131/20/1 129/23/1 
f 123/21/3 127/22/3 130/22/3 132/21/3 
f 133/1/1 134/2/1 135/3/1 136/4/1 
f 136/4/2 135/3/2 137/5/2 138/6/2 
f 138/6/3 137/5/3 139/7/3 140/8/3 
f 140/8/4 139/7/4 134/9/4 133/10/4 
f 136/18/6 138/6/6 140/8/6 133/17/6 
f 139/7/36 137/5/36 141/5/36 142/7/36 
f 143/3/1 144/2/1 145/2/1 146/3/1 
f 135/3/6 134/2/6 144/2/6 143/3/6 
f 134/9/6 139/7/6 142/7/6 144/9/6 
f 137/5/6 135/3/6 143/3/6 141/5/6 
f 145/9/5 147/7/5 147/7/5 145/9/5 
f 144/9/4 142/7/4 147/7/4 145/9/4 
f 141/5/2 143/3/2 146/3/2 148/5/2 
f 142/7/3 141/5/3 148/5/3 147/7/3 
f 149/20/4 150/21/4 151/21/4 152/20/4 
f 148/5/5 146/3/5 146/3/5 148/5/5 
f 147/7/5 148/5/5 148/5/5 147/7/5 
f 146/3/5 145/2/5 145/2/5 146/3/5 
f 153/22/37 150/21/37 146/13/37 145/14/37 
f 150/21/5 149/20/5 148/5/5 146/13/5 
f 149/20/5 154/23/5 147/7/5 148/5/5 
f 154/23/5 153/22/5 145/14/5 147/7/5 
f 155/22/2 156/23/2 157/23/2 158/22/2 
f 154/23/1 149/20/1 152/20/1 156/23/1 
f 150/21/3 153/22/3 155/22/3 151/21/3 
f 153/22/2 154/23/2 156/23/2 155/22/2 
f 159/20/5 160/21/5 158/22/5 157/23/5 
f 152/20/4 151/21/4 160/21/4 159/20/4 
f 156/23/1 152/20/1 159/20/1 157/23/1 
f 151/21/3 155/22/3 158/22/3 160/21/3 
# 164 polygons - 8 triangles

